<svg xmlns="http://www.w3.org/2000/svg" width="28" height="28" fill="none"><g clip-path="url(#a)"><path fill="#fff" d="M28 14c0-7.732-6.268-14-14-14S0 6.268 0 14s6.268 14 14 14 14-6.268 14-14Z"/><path fill="#222323" d="M14.57 12.522c1.037-.267 1.602-1.229 1.602-2.112 0-1.135-.925-2.256-2.494-2.256h-2.705v6.787h1.36v-5.53h1.335c.664 0 1.107.434 1.107 1.018 0 .57-.518 1.032-1.228 1.032h-.472v1.145l1.775 2.335h1.63l-1.91-2.42ZM23.879 12.998A3.502 3.502 0 0 0 20.717 8a3.502 3.502 0 0 0-3.499 3.499c0 1.929 1.57 3.498 3.499 3.498v-1.354a2.147 2.147 0 0 1-2.144-2.145c0-1.181.962-2.143 2.144-2.143 1.181 0 2.144.962 2.144 2.143 0 .201-.028.398-.084.589a5.16 5.16 0 0 0-2.065-.729v1.369c1.27.22 2.33 1.07 2.84 2.214H25a5.072 5.072 0 0 0-1.121-1.943ZM5.812 8.15 3 14.94h1.546l.57-1.47 1.42-3.676 1 2.676H6.152v1.21h1.836l.467 1.26h1.56L7.24 8.15h-1.43ZM11.506 17.202a.85.85 0 0 0-.234.607c0 .248.08.448.234.607a.789.789 0 0 0 .593.243c.238 0 .434-.08.588-.243a.843.843 0 0 0 .239-.607.843.843 0 0 0-.239-.607.772.772 0 0 0-.588-.243c-.243 0-.44.08-.593.243Zm1.387-.542h.392v2.107c0 .383-.112.682-.34.901-.225.224-.528.332-.907.332-.378 0-.724-.108-1.027-.327l.187-.313c.252.187.537.285.836.285.256 0 .467-.075.62-.23a.76.76 0 0 0 .239-.583v-.192c-.21.248-.486.37-.831.37-.337 0-.617-.113-.841-.346a1.192 1.192 0 0 1-.337-.86c0-.336.113-.62.346-.854.234-.234.514-.346.85-.346.337 0 .607.121.818.364v-.308h-.005ZM14.136 19.01v-2.345h.369v.35c.135-.276.364-.411.681-.411.094 0 .178.014.271.037l-.037.383a.849.849 0 0 0-.243-.037c-.383 0-.654.262-.654.766v1.261h-.387v-.005ZM17.625 17.22a.782.782 0 0 0-.594-.256.799.799 0 0 0-.593.257.85.85 0 0 0-.243.607c0 .243.08.448.243.616.164.173.36.253.593.253.234 0 .43-.084.594-.253a.856.856 0 0 0 .242-.616.87.87 0 0 0-.242-.607Zm-1.476-.256a1.17 1.17 0 0 1 .882-.36c.355 0 .645.117.879.36.233.238.35.527.35.869 0 .345-.112.64-.346.878a1.183 1.183 0 0 1-.883.355c-.355 0-.649-.117-.882-.355a1.205 1.205 0 0 1-.346-.878c0-.341.117-.631.346-.87ZM19.203 18.794c-.177-.177-.266-.425-.266-.728V16.66h.393v1.396c0 .397.224.645.607.645s.607-.248.607-.645V16.66h.392v1.406c0 .611-.378.995-.994.995-.313.004-.556-.085-.739-.267ZM23.552 18.453a.896.896 0 0 0 .229-.62.858.858 0 0 0-.23-.613.754.754 0 0 0-.597-.252.773.773 0 0 0-.602.252.891.891 0 0 0-.225.612c0 .248.075.453.225.621.154.169.35.253.602.253a.77.77 0 0 0 .598-.253Zm.28-1.49c.224.243.337.533.337.874 0 .341-.113.63-.337.873a1.104 1.104 0 0 1-.84.355c-.35 0-.631-.135-.841-.401v1.312h-.393v-3.311h.393v.36c.215-.276.5-.416.85-.416a1.06 1.06 0 0 1 .831.354Z"/></g><defs><clipPath id="a"><path fill="#fff" d="M0 0h28v28H0z"/></clipPath></defs></svg>