<svg xmlns="http://www.w3.org/2000/svg" width="28" height="28" fill="none"><g clip-path="url(#a)"><path fill="#0D3880" d="M28 14c0-7.732-6.268-14-14-14S0 6.268 0 14s6.268 14 14 14 14-6.268 14-14Z"/><path fill="#F2F2F2" fill-rule="evenodd" d="M17.65 7.26v6.432h-3.012V7.26a.306.306 0 0 0-.314-.312c-.135.044-.27.178-.27.312v6.432h-3.012V7.26c0-1.786 1.484-3.26 3.327-3.26a3.26 3.26 0 0 1 3.281 3.26ZM17.506 14.44v6.344c0 1.806-1.47 3.216-3.253 3.216A3.224 3.224 0 0 1 11 20.784V14.44h2.941v6.344c0 .176.134.308.312.308a.303.303 0 0 0 .312-.308V14.44h2.94Z" clip-rule="evenodd"/></g><defs><clipPath id="a"><path fill="#fff" d="M0 0h28v28H0z"/></clipPath></defs></svg>