<svg xmlns="http://www.w3.org/2000/svg" width="28" height="28" fill="none"><g clip-path="url(#a)"><path fill="#fff" d="M28 14c0-7.732-6.268-14-14-14S0 6.268 0 14s6.268 14 14 14 14-6.268 14-14Z"/><path fill="#F14729" fill-rule="evenodd" d="M13.777 19.255c0-.767.68-1.33 1.421-1.33l1.541.001a1.11 1.11 0 0 0 1.111-1.109v-1.546c0-.614-.497-1.106-1.111-1.106h-1.644c-.77 0-1.335-.68-1.335-1.419l.002-1.673c0-.766.68-1.332 1.422-1.332l1.555.004c.614 0 1.111-.488 1.111-1.1V7.109C17.85 6.495 17.353 6 16.74 6h-1.54a1.11 1.11 0 0 0-1.113 1.109V8.66c0 .738-.568 1.417-1.336 1.417h-1.637c-.614 0-1.113.493-1.113 1.106v1.547c0 .613.499 1.109 1.113 1.109h1.566c.74 0 1.422.566 1.422 1.333v1.668c0 .74-.567 1.416-1.336 1.406h-1.652A1.11 1.11 0 0 0 10 19.354v1.537c0 .613.499 1.109 1.113 1.109h1.55a1.11 1.11 0 0 0 1.113-1.11l.001-1.635" clip-rule="evenodd"/></g><defs><clipPath id="a"><path fill="#fff" d="M0 0h28v28H0z"/></clipPath></defs></svg>