<svg xmlns="http://www.w3.org/2000/svg" width="28" height="28" fill="none"><g clip-path="url(#a)"><path fill="#0D3880" d="M28 14c0-7.732-6.268-14-14-14S0 6.268 0 14s6.268 14 14 14 14-6.268 14-14Z"/><path fill="#fff" fill-rule="evenodd" d="M14.631 4.873a.873.873 0 1 1 1.747 0 .873.873 0 0 1-1.747 0Zm2.718 2.942a.964.964 0 1 1 1.928-.06.964.964 0 0 1-1.928.06Zm-2.718 0a.873.873 0 1 1 1.747 0 .874.874 0 0 1-1.747 0Zm5.614 2.95a1.081 1.081 0 1 1 2.164 0 1.081 1.081 0 0 1-2.165 0Zm-2.896-.009a.965.965 0 1 1 1.926 0 .966.966 0 0 1-1.926 0Zm-2.718 0a.873.873 0 1 1 1.747 0 .872.872 0 0 1-1.217.844.875.875 0 0 1-.53-.844Zm-2.599 0a.765.765 0 1 1 1.531 0 .765.765 0 0 1-1.53 0Zm-2.165 0a.656.656 0 1 1 1.313 0 .656.656 0 0 1-1.314 0Zm-2.066 0a.547.547 0 1 1 1.094 0 .547.547 0 0 1-1.094 0Zm-1.747 0a.437.437 0 1 1 .872 0 .437.437 0 0 1-.87 0h-.002Zm-1.656 0a.328.328 0 1 1 .657 0 .328.328 0 0 1-.657 0Zm-1.397 0a.218.218 0 1 1 .437 0 .219.219 0 1 1-.437 0Zm17.244 2.95c0-.596.483-1.084 1.083-1.084a1.083 1.083 0 1 1-.766 1.85 1.081 1.081 0 0 1-.317-.765Zm-2.896-.008a.966.966 0 0 1 1.93 0 .965.965 0 0 1-1.93 0Zm-2.718 0a.873.873 0 1 1 1.745.003.873.873 0 0 1-1.745-.003Zm-2.599 0a.764.764 0 1 1 1.53 0 .764.764 0 0 1-1.53 0Zm-2.165 0a.656.656 0 1 1 1.313 0 .656.656 0 0 1-1.314 0Zm-2.066 0a.547.547 0 1 1 1.094 0 .547.547 0 0 1-1.094 0Zm-1.747 0a.438.438 0 1 1 .876 0 .438.438 0 0 1-.876 0Zm-1.656 0a.328.328 0 1 1 0 .001Zm-1.397 0a.22.22 0 1 1 .375.155.22.22 0 0 1-.375-.155Zm20.21.03a1.185 1.185 0 0 1 2.371 0 1.185 1.185 0 1 1-2.37 0Zm-2.967 2.92a1.083 1.083 0 1 1 2.164 0 1.082 1.082 0 1 1-2.163 0h-.001Zm-2.895-.007a.965.965 0 1 1 1.93-.002.965.965 0 0 1-1.93.002Zm-2.718 0a.873.873 0 1 1 1.746 0 .873.873 0 0 1-1.746 0Zm-2.599 0a.765.765 0 0 1 1.32-.568.767.767 0 1 1-1.32.568Zm-2.165 0a.655.655 0 1 1 1.31-.003.655.655 0 0 1-1.31.003Zm-2.066 0a.546.546 0 1 1 1.092-.004.546.546 0 0 1-1.092.004Zm-1.747 0a.438.438 0 1 1 .877 0 .438.438 0 0 1-.877 0Zm-1.656 0a.33.33 0 0 1 .512-.274.329.329 0 1 1-.512.274Zm-1.397 0a.218.218 0 1 1 0 0Zm14.348 2.94a.964.964 0 1 1 1.928-.058.964.964 0 0 1-1.928.059Zm-2.718 0a.873.873 0 0 1 1.506-.643.873.873 0 0 1 .24.644.873.873 0 0 1-1.746 0Zm0 2.942a.872.872 0 1 1 1.745.003.872.872 0 0 1-1.745-.003Z" clip-rule="evenodd"/></g><defs><clipPath id="a"><path fill="#fff" d="M0 0h28v28H0z"/></clipPath></defs></svg>
